<svg width="123" height="122" viewBox="0 0 123 122" fill="none" xmlns="http://www.w3.org/2000/svg">
<g clip-path="url(#clip0_15331_35480)">
<path d="M123 0H0V122H123V0Z" fill="white"/>
<path d="M0 0V122H123V102.724H106.026L99.753 95.4455L93.234 102.724H45.018V63.9695H29.1092L48.9958 19.3175H68.3462L73.0202 29.4435V19.3175H97.047L101.064 29.9315L105 19.3175H123V0H0ZM109.101 25.62L102.786 42.1315L101.106 46.6064L99.384 42.1315L93.0298 25.62H79.1308V58.155H87.4948V36.9684L87.453 32.696L89.0938 36.9684L97.0888 58.155H105.042L113.079 36.9684L114.636 32.7375V58.155H123V25.62H109.101ZM53.505 25.62L38.991 58.155H48.5014L51.045 51.8915H66.9538L69.495 58.155H79.1308L64.698 25.62H53.505ZM57.3574 36.6415L58.9982 32.5764L60.639 36.6415L64.0412 44.8545H53.9552L57.3574 36.6415ZM109.758 64.011L99.876 74.542L90.036 64.011H79.1308H51.7412V96.4215H79.1308V89.387H60.1052V83.7335H78.7618V76.7404H60.1052V71.0455H79.1308V64.011L94.4222 80.276L79.1308 96.4215H89.7088L99.6718 85.849L109.593 96.4215H120.456L105.123 80.154L120.456 64.011H109.758ZM113.733 80.115L123 89.4675V70.882L113.733 80.115Z" fill="#006FCF"/>
</g>
<defs>
<clipPath id="clip0_15331_35480">
<rect width="123" height="122" fill="white"/>
</clipPath>
</defs>
</svg>
