<svg width="25" height="24" viewBox="0 0 25 24" fill="none" xmlns="http://www.w3.org/2000/svg">
<path d="M7.50391 7.99951V5.99951C7.50391 3.23809 9.74249 0.999512 12.5039 0.999512C15.2653 0.999512 17.5039 3.23809 17.5039 5.99951V7.99951H20.5039C21.0562 7.99951 21.5039 8.44723 21.5039 8.99951V20.9995C21.5039 21.5518 21.0562 21.9995 20.5039 21.9995H4.50391C3.95163 21.9995 3.50391 21.5518 3.50391 20.9995V8.99951C3.50391 8.44723 3.95163 7.99951 4.50391 7.99951H7.50391ZM7.50391 9.99951H5.50391V19.9995H19.5039V9.99951H17.5039V11.9995H15.5039V9.99951H9.50391V11.9995H7.50391V9.99951ZM9.50391 7.99951H15.5039V5.99951C15.5039 4.34266 14.1607 2.99951 12.5039 2.99951C10.847 2.99951 9.50391 4.34266 9.50391 5.99951V7.99951Z" fill="#7F03B0"/>
</svg>
