<svg width="25" height="24" viewBox="0 0 25 24" fill="none" xmlns="http://www.w3.org/2000/svg">
<path d="M4.16147 12.7869H17.5746L19.2144 3.13477H2.81687C2.69696 3.13518 2.5786 3.16013 2.47014 3.20787C2.36168 3.25561 2.26577 3.32498 2.18915 3.41108C2.11254 3.49718 2.0571 3.59791 2.02673 3.70618C1.99636 3.81445 1.99181 3.92762 2.01339 4.03771L3.35799 12.1594C3.38935 12.3364 3.48767 12.497 3.63509 12.6122C3.78251 12.7273 3.96926 12.7893 4.16147 12.7869Z" stroke="black" stroke-width="2" stroke-linecap="round" stroke-linejoin="round"/>
<path d="M19.2168 5.38128L20.1621 1.51172L22.9994 1.51172" stroke="black" stroke-width="2" stroke-linecap="round"/>
<path d="M20.1959 5.58978C20.3113 5.04968 19.967 4.51831 19.4269 4.40293C18.8868 4.28754 18.3554 4.63184 18.2401 5.17194L20.1959 5.58978ZM16.7834 16.7771L15.8054 16.5682L15.8036 16.5771L16.7834 16.7771ZM15.9799 17.433L15.9801 16.433H15.9799V17.433ZM5.37891 16.433C4.82662 16.433 4.37891 16.8807 4.37891 17.433C4.37891 17.9853 4.82662 18.433 5.37891 18.433V16.433ZM18.2401 5.17194L15.8054 16.5682L17.7613 16.9861L20.1959 5.58978L18.2401 5.17194ZM15.8036 16.5771C15.8119 16.5364 15.834 16.4999 15.8662 16.4736L17.1309 18.0229C17.4559 17.7576 17.6793 17.3882 17.7632 16.9771L15.8036 16.5771ZM15.8662 16.4736C15.8983 16.4474 15.9386 16.433 15.9801 16.433L15.9797 18.433C16.3992 18.4331 16.8059 18.2883 17.1309 18.0229L15.8662 16.4736ZM15.9799 16.433H5.85717V18.433H15.9799V16.433ZM5.85717 16.433H5.37891V18.433H5.85717V16.433Z" fill="black"/>
<path d="M7.05222 22.4892C7.5805 22.4892 8.00875 22.061 8.00875 21.5327C8.00875 21.0044 7.5805 20.5762 7.05222 20.5762C6.52395 20.5762 6.0957 21.0044 6.0957 21.5327C6.0957 22.061 6.52395 22.4892 7.05222 22.4892Z" fill="black" stroke="black" stroke-width="2" stroke-linecap="round" stroke-linejoin="round"/>
<path d="M14.2944 22.4892C14.8227 22.4892 15.2509 22.061 15.2509 21.5327C15.2509 21.0044 14.8227 20.5762 14.2944 20.5762C13.7661 20.5762 13.3379 21.0044 13.3379 21.5327C13.3379 22.061 13.7661 22.4892 14.2944 22.4892Z" fill="black" stroke="black" stroke-width="2" stroke-linecap="round" stroke-linejoin="round"/>
</svg>
