<svg width="19" height="18" viewBox="0 0 19 18" fill="none" xmlns="http://www.w3.org/2000/svg">
<g clip-path="url(#clip0_13877_20361)">
<path d="M2.58932 9.64146H13.1065L14.3922 3.21289H1.53503C1.44101 3.21324 1.34821 3.2342 1.26317 3.27431C1.17812 3.31442 1.10292 3.37269 1.04285 3.44502C0.982774 3.51735 0.939299 3.60198 0.915488 3.69294C0.891676 3.7839 0.888107 3.87897 0.905032 3.97146L1.95932 9.11432C1.98391 9.26302 2.061 9.39797 2.17659 9.49469C2.29218 9.59141 2.43861 9.64348 2.58932 9.64146Z" stroke="#7F03B0" stroke-width="1.71429" stroke-linecap="round" stroke-linejoin="round"/>
<path d="M14.3926 3.21339L14.9326 1.15625L17.1247 1.15625" stroke="#7F03B0" stroke-width="1.71429" stroke-linecap="round"/>
<path d="M13.9476 9.81068C14.0405 9.34648 13.7394 8.89492 13.2752 8.80208C12.811 8.70924 12.3595 9.01028 12.2666 9.47448L13.9476 9.81068ZM12.5671 12.3426L13.407 12.514L13.4076 12.5107L12.5671 12.3426ZM11.9371 12.8569L11.9373 11.9997H11.9371V12.8569ZM3.625 11.9997C3.15161 11.9997 2.76786 12.3835 2.76786 12.8569C2.76786 13.3303 3.15161 13.714 3.625 13.714V11.9997ZM12.2666 9.47448L11.7266 12.1745L13.4076 12.5107L13.9476 9.81068L12.2666 9.47448ZM11.7273 12.1711C11.7372 12.1227 11.7635 12.0792 11.8018 12.048L12.8858 13.376C13.1537 13.1573 13.3378 12.8528 13.407 12.514L11.7273 12.1711ZM11.8018 12.048C11.84 12.0168 11.8879 11.9997 11.9373 11.9997L11.937 13.714C12.2828 13.7141 12.618 13.5947 12.8858 13.376L11.8018 12.048ZM11.9371 11.9997H4V13.714H11.9371V11.9997ZM4 11.9997H3.625V13.714H4V11.9997Z" fill="#7F03B0"/>
<path d="M4.75028 17.356C5.10532 17.356 5.39314 17.0682 5.39314 16.7132C5.39314 16.3581 5.10532 16.0703 4.75028 16.0703C4.39524 16.0703 4.10742 16.3581 4.10742 16.7132C4.10742 17.0682 4.39524 17.356 4.75028 17.356Z" stroke="#7F03B0" stroke-width="1.71429" stroke-linecap="round" stroke-linejoin="round"/>
<path d="M11.178 17.356C11.5331 17.356 11.8209 17.0682 11.8209 16.7132C11.8209 16.3581 11.5331 16.0703 11.178 16.0703C10.823 16.0703 10.5352 16.3581 10.5352 16.7132C10.5352 17.0682 10.823 17.356 11.178 17.356Z" stroke="#7F03B0" stroke-width="1.71429" stroke-linecap="round" stroke-linejoin="round"/>
</g>
<defs>
<clipPath id="clip0_13877_20361">
<rect width="18" height="18" fill="white" transform="translate(0.25)"/>
</clipPath>
</defs>
</svg>
