<svg width="15" height="15" viewBox="0 0 15 15" fill="none" xmlns="http://www.w3.org/2000/svg">
<path d="M7.50076 1.39673C9.26251 -0.185015 11.985 -0.132515 13.6823 1.56773C15.3788 3.26873 15.4373 5.97774 13.8593 7.74474L7.49925 14.1137L1.14075 7.74474C-0.437246 5.97774 -0.377995 3.26424 1.31775 1.56773C3.01651 -0.130265 5.73376 -0.187265 7.50076 1.39673ZM13 7C11.875 5.8735 13.9425 6.68724 12.765 7.74474L7.49926 12.5L5.5 9.98735C4.31875 8.92835 6.628 9.872 5.5 11C4.3825 12.1175 1.20525 5.53524 2.235 6.71724L7.50001 11.9905L12.765 6.71798C13.7955 5.53523 14.119 8.12125 13 7Z" fill="#7F03B0"/>
</svg>
