<svg width="41" height="41" viewBox="0 0 41 41" fill="none" xmlns="http://www.w3.org/2000/svg">
<g id="Group">
<path id="Vector" d="M5.46036 21.5H30.0004L33.0004 6.5H3.00036C2.78097 6.5008 2.56443 6.54972 2.36601 6.64331C2.16758 6.73689 1.99209 6.87286 1.85193 7.04164C1.71176 7.21041 1.61032 7.40788 1.55476 7.62012C1.4992 7.83235 1.49087 8.05419 1.53036 8.27L3.99036 20.27C4.04775 20.617 4.22762 20.9319 4.49733 21.1575C4.76704 21.3832 5.10872 21.5047 5.46036 21.5Z" stroke="black" stroke-width="1.71429" stroke-linecap="round" stroke-linejoin="round"/>
<path id="Vector_2" d="M33 6.50001L34.26 1.70001L39.375 1.70002" stroke="black" stroke-width="1.71429" stroke-linecap="round"/>
<path id="Vector_3" d="M30.8405 21.6681C30.9333 21.2039 30.6323 20.7523 30.1681 20.6595C29.7039 20.5667 29.2523 20.8677 29.1595 21.3319L30.8405 21.6681ZM28.74 27.8L29.5798 27.9714L29.5805 27.9681L28.74 27.8ZM27.27 29L27.2702 28.1429H27.27V29ZM7.875 28.1429C7.40161 28.1429 7.01786 28.5266 7.01786 29C7.01786 29.4734 7.40161 29.8571 7.875 29.8571V28.1429ZM29.1595 21.3319L27.8995 27.6319L29.5805 27.9681L30.8405 21.6681L29.1595 21.3319ZM27.9002 27.6286C27.8705 27.7738 27.7916 27.9043 27.6768 27.998L28.7609 29.326C29.1818 28.9824 29.4711 28.5038 29.5798 27.9714L27.9002 27.6286ZM27.6768 27.998C27.562 28.0917 27.4184 28.1429 27.2702 28.1429L27.2698 29.8571C27.8132 29.8573 28.34 29.6696 28.7609 29.326L27.6768 27.998ZM27.27 28.1429H8.75V29.8571H27.27V28.1429ZM8.75 28.1429H7.875V29.8571H8.75V28.1429Z" fill="black"/>
<path id="Vector_4" d="M10.5 39.5C11.3284 39.5 12 38.8284 12 38C12 37.1716 11.3284 36.5 10.5 36.5C9.67157 36.5 9 37.1716 9 38C9 38.8284 9.67157 39.5 10.5 39.5Z" stroke="black" stroke-width="1.71429" stroke-linecap="round" stroke-linejoin="round"/>
<path id="Vector_5" d="M25.5 39.5C26.3284 39.5 27 38.8284 27 38C27 37.1716 26.3284 36.5 25.5 36.5C24.6716 36.5 24 37.1716 24 38C24 38.8284 24.6716 39.5 25.5 39.5Z" stroke="black" stroke-width="1.71429" stroke-linecap="round" stroke-linejoin="round"/>
</g>
</svg>
