<svg width="19" height="18" viewBox="0 0 19 18" fill="none" xmlns="http://www.w3.org/2000/svg">
<g clip-path="url(#clip0_13877_20371)">
<path d="M9.25075 3.39673C11.0125 1.81498 13.735 1.86748 15.4323 3.56773C17.1288 5.26873 17.1873 7.97774 15.6093 9.74473L9.24925 16.1137L2.89075 9.74473C1.31275 7.97774 1.372 5.26424 3.06775 3.56773C4.7665 1.86974 7.48375 1.81273 9.25075 3.39673ZM14.3703 4.62749C13.2453 3.50099 11.4303 3.45524 10.2528 4.51274L9.2515 5.41124L8.2495 4.51348C7.06825 3.45449 5.257 3.50098 4.129 4.62898C3.0115 5.74648 2.95525 7.53523 3.985 8.71724L9.25 13.9905L14.515 8.71798C15.5455 7.53523 15.4893 5.74873 14.3703 4.62749Z" fill="#7F03B0"/>
</g>
<defs>
<clipPath id="clip0_13877_20371">
<rect width="18" height="18" fill="white" transform="translate(0.25)"/>
</clipPath>
</defs>
</svg>
