<svg width="15" height="15" viewBox="0 0 15 15" fill="none" xmlns="http://www.w3.org/2000/svg">
<path d="M7.50075 1.39673C9.2625 -0.185015 11.985 -0.132515 13.6823 1.56773C15.3788 3.26873 15.4373 5.97774 13.8593 7.74473L7.49925 14.1137L1.14075 7.74473C-0.437245 5.97774 -0.377995 3.26424 1.31775 1.56773C3.0165 -0.130265 5.73375 -0.187265 7.50075 1.39673ZM12.6203 2.62749C11.4953 1.50099 9.68025 1.45524 8.50275 2.51274L7.5015 3.41124L6.4995 2.51348C5.31825 1.45449 3.507 1.50098 2.379 2.62898C1.2615 3.74648 1.20525 5.53523 2.235 6.71724L7.5 11.9905L12.765 6.71798C13.7955 5.53523 13.7393 3.74873 12.6203 2.62749Z" fill="#7F03B0"/>
</svg>
