<svg width="25" height="24" viewBox="0 0 25 24" fill="none" xmlns="http://www.w3.org/2000/svg">
<g clip-path="url(#clip0_30130_22354)">
<path d="M21.0901 4.61183C20.5794 4.10083 19.9729 3.69547 19.3055 3.41891C18.638 3.14235 17.9226 3 17.2001 3C16.4776 3 15.7622 3.14235 15.0948 3.41891C14.4273 3.69547 13.8209 4.10083 13.3101 4.61183L12.2501 5.67183L11.1901 4.61183C10.1584 3.58013 8.75915 3.00053 7.30012 3.00053C5.84109 3.00053 4.44181 3.58013 3.41012 4.61183C2.37843 5.64352 1.79883 7.04279 1.79883 8.50183C1.79883 9.96086 2.37843 11.3601 3.41012 12.3918L4.47012 13.4518L12.2501 21.2318L20.0301 13.4518L21.0901 12.3918C21.6011 11.8811 22.0065 11.2746 22.283 10.6072C22.5596 9.93972 22.7019 9.22431 22.7019 8.50183C22.7019 7.77934 22.5596 7.06393 22.283 6.39647C22.0065 5.72901 21.6011 5.12258 21.0901 4.61183V4.61183Z" stroke="black" stroke-width="2" stroke-linecap="round" stroke-linejoin="round"/>
</g>
<defs>
<clipPath id="clip0_30130_22354">
<rect width="24" height="24" fill="white" transform="translate(0.25)"/>
</clipPath>
</defs>
</svg>
