<svg width="20" height="20" viewBox="0 0 20 20" fill="none" xmlns="http://www.w3.org/2000/svg">
<circle cx="10" cy="10" r="8.75" stroke="#525252" stroke-width="1.5"/>
<path d="M9.26779 11.77V11.263C9.26779 10.8903 9.31979 10.5783 9.42379 10.327C9.52779 10.067 9.65779 9.846 9.81379 9.664C9.97845 9.482 10.1518 9.32167 10.3338 9.183C10.5245 9.04433 10.6978 8.91 10.8538 8.78C11.0185 8.64133 11.1528 8.48967 11.2568 8.325C11.3608 8.16033 11.4128 7.961 11.4128 7.727C11.4128 7.37167 11.2871 7.10733 11.0358 6.934C10.7931 6.752 10.4551 6.661 10.0218 6.661C9.52779 6.661 9.15079 6.791 8.89079 7.051C8.63079 7.30233 8.50512 7.675 8.51379 8.169H7.08379C7.08379 7.55367 7.20945 7.03367 7.46079 6.609C7.71212 6.18433 8.06312 5.86367 8.51379 5.647C8.96445 5.42167 9.48012 5.309 10.0608 5.309C10.5548 5.309 11.0098 5.39567 11.4258 5.569C11.8505 5.73367 12.1885 5.998 12.4398 6.362C12.6911 6.71733 12.8168 7.181 12.8168 7.753C12.8168 8.13433 12.7648 8.455 12.6608 8.715C12.5568 8.96633 12.4181 9.183 12.2448 9.365C12.0801 9.53833 11.9068 9.69433 11.7248 9.833C11.5428 9.97167 11.3695 10.1103 11.2048 10.249C11.0401 10.379 10.9058 10.535 10.8018 10.717C10.6978 10.899 10.6458 11.12 10.6458 11.38V11.77H9.26779ZM9.11179 14.5V12.784H10.8408V14.5H9.11179Z" fill="#525252"/>
</svg>
