<svg width="153" height="153" viewBox="0 0 153 153" fill="none" xmlns="http://www.w3.org/2000/svg">
<g clip-path="url(#clip0_15331_35490)">
<path d="M149.985 134.403V134.709H150.27C150.324 134.71 150.376 134.696 150.423 134.67C150.442 134.657 150.457 134.639 150.467 134.619C150.477 134.598 150.481 134.576 150.48 134.553C150.481 134.531 150.477 134.508 150.467 134.488C150.457 134.468 150.442 134.451 150.423 134.439C150.377 134.411 150.324 134.398 150.27 134.4H149.985V134.403ZM150.273 134.186C150.395 134.179 150.517 134.214 150.616 134.286C150.656 134.318 150.687 134.36 150.708 134.407C150.729 134.454 150.738 134.505 150.736 134.557C150.738 134.601 150.73 134.645 150.713 134.686C150.697 134.727 150.672 134.764 150.64 134.795C150.563 134.861 150.467 134.901 150.366 134.909L150.748 135.345H150.454L150.102 134.912H149.988V135.345H149.741V134.187H150.277L150.273 134.186ZM150.197 135.744C150.326 135.745 150.454 135.719 150.572 135.667C150.686 135.618 150.79 135.548 150.878 135.46C150.966 135.372 151.037 135.269 151.085 135.154C151.186 134.912 151.186 134.639 151.085 134.397C151.036 134.283 150.966 134.179 150.878 134.091C150.79 134.003 150.686 133.933 150.572 133.883C150.453 133.835 150.325 133.81 150.197 133.812C150.066 133.81 149.936 133.835 149.814 133.883C149.697 133.932 149.591 134.002 149.501 134.091C149.366 134.23 149.274 134.405 149.238 134.596C149.202 134.786 149.222 134.983 149.297 135.162C149.344 135.277 149.413 135.381 149.501 135.468C149.591 135.556 149.697 135.627 149.814 135.675C149.935 135.727 150.065 135.753 150.197 135.752M150.197 133.533C150.533 133.533 150.856 133.665 151.095 133.9C151.211 134.013 151.303 134.148 151.366 134.297C151.432 134.45 151.465 134.615 151.465 134.781C151.465 134.948 151.432 135.112 151.366 135.265C151.302 135.413 151.21 135.548 151.095 135.662C150.978 135.775 150.842 135.865 150.692 135.93C150.536 135.996 150.367 136.03 150.197 136.029C150.024 136.031 149.854 135.997 149.695 135.93C149.544 135.867 149.406 135.776 149.289 135.662C149.174 135.544 149.084 135.405 149.022 135.252C148.956 135.099 148.922 134.935 148.922 134.768C148.922 134.602 148.956 134.437 149.022 134.284C149.085 134.135 149.177 134 149.292 133.887C149.408 133.771 149.546 133.68 149.699 133.62C149.857 133.553 150.028 133.519 150.2 133.52M33.0598 129.063C33.0598 126.856 34.5056 125.043 36.8687 125.043C39.127 125.043 40.6509 126.778 40.6509 129.063C40.6509 131.348 39.127 133.083 36.8687 133.083C34.5056 133.083 33.0598 131.27 33.0598 129.063ZM43.2251 129.063V122.783H40.4948V124.313C39.6288 123.182 38.3153 122.473 36.5291 122.473C33.01 122.473 30.2484 125.233 30.2484 129.066C30.2484 132.9 33.0085 135.66 36.5291 135.66C38.3146 135.66 39.6288 134.95 40.4948 133.82V135.345H43.222V129.063H43.2251ZM135.478 129.063C135.478 126.856 136.924 125.043 139.288 125.043C141.548 125.043 143.07 126.778 143.07 129.063C143.07 131.348 141.548 133.083 139.288 133.083C136.925 133.083 135.478 131.27 135.478 129.063ZM145.646 129.063V117.741H142.914V124.313C142.048 123.182 140.734 122.473 138.948 122.473C135.429 122.473 132.667 125.233 132.667 129.066C132.667 132.9 135.427 135.66 138.948 135.66C140.734 135.66 142.048 134.95 142.914 133.82V135.345H145.646V129.063ZM77.1115 124.914C78.871 124.914 80.0009 126.017 80.2893 127.959H73.7746C74.0661 126.146 75.1669 124.914 77.1123 124.914M77.1666 122.466C73.487 122.466 70.9127 125.143 70.9127 129.059C70.9127 133.052 73.5902 135.653 77.3494 135.653C79.2405 135.653 80.9725 135.181 82.4964 133.893L81.1584 131.87C80.1057 132.712 78.7655 133.184 77.5055 133.184C75.746 133.184 74.1441 132.369 73.7501 130.108H83.0732C83.1 129.769 83.1275 129.426 83.1275 129.059C83.1 125.144 80.6795 122.465 77.1651 122.465M110.129 129.059C110.129 126.852 111.575 125.039 113.938 125.039C116.196 125.039 117.72 126.774 117.72 129.059C117.72 131.344 116.196 133.079 113.938 133.079C111.575 133.079 110.128 131.266 110.128 129.059M120.293 129.059V122.783H117.565V124.313C116.696 123.182 115.385 122.473 113.599 122.473C110.08 122.473 107.318 125.233 107.318 129.066C107.318 132.9 110.078 135.66 113.599 135.66C115.385 135.66 116.696 134.95 117.565 133.82V135.345H120.294V129.063L120.293 129.059ZM94.7104 129.059C94.7104 132.868 97.3619 135.652 101.409 135.652C103.3 135.652 104.56 135.231 105.922 134.155L104.611 131.948C103.586 132.685 102.51 133.079 101.321 133.079C99.142 133.052 97.5393 131.476 97.5393 129.059C97.5393 126.641 99.142 125.066 101.321 125.039C102.506 125.039 103.583 125.433 104.611 126.169L105.922 123.962C104.557 122.886 103.297 122.465 101.409 122.465C97.3619 122.465 94.7104 125.249 94.7104 129.059ZM129.908 122.465C128.333 122.465 127.307 123.202 126.598 124.305V122.783H123.892V135.338H126.625V128.3C126.625 126.222 127.518 125.068 129.303 125.068C129.887 125.059 130.468 125.167 131.01 125.384L131.852 122.81C131.248 122.572 130.46 122.467 129.906 122.467M56.7235 123.781C55.41 122.915 53.6 122.467 51.6034 122.467C48.4225 122.467 46.3746 123.992 46.3746 126.487C46.3746 128.534 47.8992 129.797 50.7068 130.191L51.9966 130.374C53.4937 130.585 54.2006 130.979 54.2006 131.688C54.2006 132.659 53.206 133.213 51.3387 133.213C49.4476 133.213 48.0828 132.608 47.1626 131.899L45.8796 134.028C47.3767 135.131 49.2678 135.658 51.3157 135.658C54.9418 135.658 57.0433 133.95 57.0433 131.559C57.0433 129.352 55.3894 128.198 52.6568 127.804L51.37 127.617C50.1881 127.464 49.2411 127.226 49.2411 126.385C49.2411 125.467 50.1338 124.915 51.6317 124.915C53.2344 124.915 54.7858 125.519 55.5462 125.991L56.7281 123.784L56.7235 123.781ZM91.9525 122.47C90.3774 122.47 89.3515 123.206 88.6454 124.31V122.783H85.9396V135.338H88.6699V128.3C88.6699 126.222 89.5627 125.068 91.3474 125.068C91.9319 125.059 92.5122 125.167 93.0549 125.384L93.8964 122.81C93.2921 122.572 92.5041 122.467 91.951 122.467M68.6537 122.783H64.1892V118.974H61.429V122.783H58.8824V125.278H61.429V131.006C61.429 133.919 62.5597 135.654 65.7895 135.654C66.9745 135.654 68.3393 135.286 69.2053 134.683L68.4165 132.345C67.6018 132.817 66.7091 133.055 65.9991 133.055C64.6344 133.055 64.1892 132.213 64.1892 130.954V125.28H68.6537V122.783ZM27.8341 135.341V127.461C27.8341 124.494 25.943 122.497 22.8945 122.47C21.2918 122.444 19.6386 122.942 18.4812 124.704C17.6152 123.312 16.2504 122.47 14.3318 122.47C12.9908 122.47 11.6803 122.864 10.6545 124.335V122.783H7.92188V135.338H10.6759V128.376C10.6759 126.197 11.8846 125.039 13.7512 125.039C15.5642 125.039 16.4815 126.22 16.4815 128.349V135.336H19.2416V128.375C19.2416 126.195 20.5015 125.037 22.3138 125.037C24.1781 125.037 25.0678 126.219 25.0678 128.347V135.335L27.8341 135.341Z" fill="#231F20"/>
<path d="M151.542 93.5762V91.7402H151.063L150.51 93.0002L149.96 91.7402H149.481V93.5762H149.82V92.1931L150.337 93.3865H150.689L151.206 92.1901V93.5762H151.543H151.542ZM148.508 93.5762V92.0547H149.12V91.7448H147.557V92.0547H148.169V93.5762H148.505H148.508Z" fill="#F79410"/>
<path d="M97.1981 101.451H55.8223V27.0925H97.1988L97.1981 101.451Z" fill="#FF5F00"/>
<path d="M58.446 64.273C58.446 49.1895 65.5085 35.753 76.5061 27.094C68.1815 20.5299 57.8852 16.9673 47.2839 16.983C21.1691 16.983 0 38.1551 0 64.273C0 90.3908 21.1691 111.563 47.2839 111.563C57.8854 111.579 68.182 108.016 76.5069 101.452C65.51 92.7945 58.446 79.3572 58.446 64.273Z" fill="#EB001B"/>
<path d="M153.019 64.273C153.019 90.3908 131.849 111.563 105.735 111.563C95.132 111.579 84.8342 108.016 76.5078 101.452C87.5085 92.7929 94.571 79.3572 94.571 64.273C94.571 49.1887 87.5085 35.753 76.5078 27.094C84.834 20.5301 95.1315 16.9676 105.734 16.983C131.849 16.983 153.018 38.1551 153.018 64.273" fill="#F79E1B"/>
</g>
<defs>
<clipPath id="clip0_15331_35490">
<rect width="153" height="153" fill="white"/>
</clipPath>
</defs>
</svg>
