<svg width="25" height="24" viewBox="0 0 25 24" fill="none" xmlns="http://www.w3.org/2000/svg">
<path d="M12.25 2C17.7728 2 22.25 6.47715 22.25 12C22.25 17.5228 17.7728 22 12.25 22C6.72715 22 2.25 17.5228 2.25 12C2.25 6.47715 6.72715 2 12.25 2ZM12.25 17C11.605 17 10.9886 16.8779 10.4225 16.6555L8.18604 18.8923C9.37707 19.5961 10.7664 20 12.25 20C13.7336 20 15.1229 19.5961 16.314 18.8923L14.0775 16.6555C13.5114 16.8779 12.895 17 12.25 17ZM4.25 12C4.25 13.4836 4.65386 14.8729 5.35765 16.064L7.59451 13.8275C7.37213 13.2614 7.25 12.645 7.25 12C7.25 11.355 7.37213 10.7386 7.59451 10.1725L5.35765 7.93604C4.65386 9.12707 4.25 10.5164 4.25 12ZM19.1423 7.93604L16.9055 10.1725C17.1279 10.7386 17.25 11.355 17.25 12C17.25 12.645 17.1279 13.2614 16.9055 13.8275L19.1423 16.064C19.8461 14.8729 20.25 13.4836 20.25 12C20.25 10.5164 19.8461 9.12707 19.1423 7.93604ZM12.25 9C10.5931 9 9.25 10.3431 9.25 12C9.25 13.6569 10.5931 15 12.25 15C13.9069 15 15.25 13.6569 15.25 12C15.25 10.3431 13.9069 9 12.25 9ZM12.25 4C10.7664 4 9.37707 4.40386 8.18604 5.10765L10.4225 7.34451C10.9886 7.12213 11.605 7 12.25 7C12.895 7 13.5114 7.12213 14.0775 7.34451L16.314 5.10765C15.1229 4.40386 13.7336 4 12.25 4Z" fill="#7F03B0"/>
</svg>
