<svg width="15" height="15" viewBox="0 0 15 15" fill="none" xmlns="http://www.w3.org/2000/svg">
<path d="M13.1667 4.16667L10.5 5.5M10.5 5.5L10.1667 5.66667L7.16667 7.16667M10.5 5.5V7.83333M10.5 5.5L4.16667 2.16667M7.16667 7.16667L1.16667 4.16667M7.16667 7.16667V13.5M9.552 1.42133L10.8853 2.12133C12.3193 2.874 13.0367 3.25 13.4353 3.92667C13.8333 4.60267 13.8333 5.44467 13.8333 7.128V7.206C13.8333 8.88867 13.8333 9.73067 13.4353 10.4067C13.0367 11.0833 12.3193 11.46 10.8853 12.2127L9.552 12.912C8.38133 13.526 7.796 13.8333 7.16667 13.8333C6.53733 13.8333 5.952 13.5267 4.78133 12.912L3.448 12.212C2.014 11.4593 1.29667 11.0833 0.898 10.4067C0.5 9.73067 0.5 8.88867 0.5 7.20667V7.12867C0.5 5.44533 0.5 4.60333 0.898 3.92733C1.29667 3.25067 2.014 2.874 3.448 2.122L4.78133 1.422C5.952 0.807333 6.53733 0.5 7.16667 0.5C7.796 0.5 8.38133 0.806667 9.552 1.42133Z" stroke="black" stroke-linecap="round"/>
</svg>
