<svg width="25" height="25" viewBox="0 0 25 25" fill="none" xmlns="http://www.w3.org/2000/svg">
<path d="M23.2857 12.1429C23.2857 15.0981 22.1117 17.9324 20.022 20.022C17.9324 22.1117 15.0981 23.2857 12.1429 23.2857C9.18759 23.2857 6.35336 22.1117 4.26367 20.022C2.17398 17.9324 1 15.0981 1 12.1429M23.2857 12.1429C23.2857 9.18759 22.1117 6.35336 20.022 4.26367C17.9324 2.17398 15.0981 1 12.1429 1C9.18759 1 6.35336 2.17398 4.26367 4.26367C2.17398 6.35336 1 9.18759 1 12.1429M23.2857 12.1429H1" stroke="black" stroke-width="2" stroke-linecap="round" stroke-linejoin="round"/>
<path d="M16.4288 12.1429C16.2183 16.2177 14.7174 20.12 12.1431 23.2857C9.56883 20.12 8.06793 16.2177 7.85742 12.1429C8.06793 8.06802 9.56883 4.16569 12.1431 1C14.7174 4.16569 16.2183 8.06802 16.4288 12.1429Z" stroke="black" stroke-width="2" stroke-linecap="round" stroke-linejoin="round"/>
</svg>
