<svg width="34" height="34" viewBox="0 0 34 34" fill="none" xmlns="http://www.w3.org/2000/svg">
<path d="M16.6667 33.3333C7.46167 33.3333 0 25.8717 0 16.6667C0 7.46167 7.46167 0 16.6667 0C25.8717 0 33.3333 7.46167 33.3333 16.6667C33.3333 25.8717 25.8717 33.3333 16.6667 33.3333ZM15 21.6667V25H18.3333V21.6667H15ZM18.3333 18.925C19.6728 18.5213 20.8227 17.6499 21.5736 16.4696C22.3245 15.2892 22.6265 13.8784 22.4246 12.4941C22.2226 11.1098 21.5302 9.84407 20.4734 8.92743C19.4165 8.01079 18.0656 7.50423 16.6667 7.5C15.3181 7.4999 14.0111 7.96692 12.968 8.82166C11.9249 9.67639 11.21 10.8661 10.945 12.1883L14.215 12.8433C14.3078 12.3791 14.5305 11.9507 14.8573 11.608C15.184 11.2654 15.6014 11.0226 16.0607 10.9078C16.5201 10.7931 17.0026 10.8112 17.452 10.96C17.9015 11.1087 18.2995 11.3821 18.5997 11.7482C18.8999 12.1143 19.09 12.5582 19.1478 13.0281C19.2056 13.498 19.1288 13.9747 18.9263 14.4026C18.7238 14.8306 18.4039 15.1923 18.0039 15.4455C17.6039 15.6988 17.1401 15.8333 16.6667 15.8333C16.2246 15.8333 15.8007 16.0089 15.4882 16.3215C15.1756 16.6341 15 17.058 15 17.5V20H18.3333V18.925Z" fill="#7F03B0"/>
</svg>
