<svg width="25" height="24" viewBox="0 0 25 24" fill="none" xmlns="http://www.w3.org/2000/svg">
<path d="M12.25 4C9.50144 4 7.07508 5.38626 5.63443 7.5H8.25V9.5H2.25V3.5H4.25V5.99936C6.07381 3.57166 8.97764 2 12.25 2C17.7728 2 22.25 6.47715 22.25 12H20.25C20.25 7.58172 16.6683 4 12.25 4ZM4.25 12C4.25 16.4183 7.83172 20 12.25 20C14.9986 20 17.4249 18.6137 18.8656 16.5H16.25V14.5H22.25V20.5H20.25V18.0006C18.4262 20.4283 15.5224 22 12.25 22C6.72715 22 2.25 17.5228 2.25 12H4.25Z" fill="#7F03B0"/>
</svg>
