<svg width="240" height="240" viewBox="0 0 240 240" fill="none" xmlns="http://www.w3.org/2000/svg">
<g clip-path="url(#clip0_5237_83213)">
<path d="M101.795 18.1374C104.087 15.5771 106.894 13.529 110.031 12.1269C113.169 10.7247 116.567 10 120.003 10C123.44 10 126.838 10.7247 129.976 12.1269C133.113 13.529 135.92 15.5771 138.212 18.1374L146.767 27.6939C149.212 30.4252 152.239 32.5716 155.626 33.9741C159.013 35.3766 162.672 35.9994 166.332 35.7962L179.164 35.0874C182.596 34.8982 186.029 35.4351 189.24 36.663C192.45 37.8908 195.366 39.7821 197.796 42.2132C200.226 44.6443 202.115 47.5607 203.342 50.7718C204.568 53.9829 205.103 57.4166 204.913 60.8486L204.204 73.6681C204.002 77.3261 204.626 80.9826 206.029 84.3671C207.431 87.7516 209.576 90.7775 212.306 93.2211L221.863 101.776C224.425 104.068 226.475 106.875 227.878 110.014C229.281 113.153 230.007 116.552 230.007 119.99C230.007 123.429 229.281 126.828 227.878 129.967C226.475 133.106 224.425 135.913 221.863 138.205L212.306 146.76C209.575 149.205 207.428 152.233 206.026 155.619C204.623 159.006 204.001 162.665 204.204 166.325L204.913 179.157C205.102 182.589 204.565 186.022 203.337 189.233C202.109 192.443 200.218 195.359 197.787 197.789C195.356 200.219 192.439 202.109 189.228 203.335C186.017 204.561 182.583 205.097 179.151 204.906L166.332 204.197C162.674 203.996 159.017 204.619 155.633 206.022C152.248 207.424 149.222 209.57 146.779 212.299L138.224 221.856C135.932 224.418 133.125 226.468 129.986 227.871C126.847 229.275 123.448 230 120.01 230C116.571 230 113.172 229.275 110.033 227.871C106.894 226.468 104.087 224.418 101.795 221.856L93.2402 212.299C90.7953 209.568 87.7673 207.422 84.3806 206.019C80.9938 204.617 77.3349 203.994 73.6749 204.197L60.8432 204.906C57.4111 205.095 53.9777 204.558 50.7671 203.33C47.5566 202.102 44.6411 200.211 42.2112 197.78C39.7812 195.349 37.8913 192.433 36.665 189.221C35.4387 186.01 34.9034 182.577 35.0943 179.145L35.8031 166.325C36.0043 162.667 35.3806 159.011 33.9782 155.626C32.5757 152.242 30.4304 149.216 27.7008 146.772L18.1442 138.218C15.5819 135.925 13.5321 133.118 12.1288 129.979C10.7254 126.84 10 123.441 10 120.003C10 116.565 10.7254 113.165 12.1288 110.026C13.5321 106.888 15.5819 104.08 18.1442 101.788L27.7008 93.2333C30.432 90.7885 32.5784 87.7605 33.9809 84.3738C35.3834 80.987 36.0062 77.3281 35.8031 73.6681L35.0943 60.8364C34.9069 57.4053 35.445 53.9732 36.6737 50.7641C37.9023 47.5551 39.7939 44.6411 42.2248 42.2125C44.6557 39.7839 47.5714 37.8951 50.7817 36.6695C53.9919 35.4439 57.4245 34.909 60.8554 35.0997L73.6749 35.8085C77.3329 36.0097 80.9894 35.386 84.3739 33.9836C87.7584 32.5811 90.7844 30.4358 93.2279 27.7062L101.795 18.1374Z" stroke="black" stroke-width="20"/>
<path d="M89.4531 89.4531H89.5753V89.5753H89.4531V89.4531ZM150.556 150.556H150.679V150.679H150.556V150.556Z" stroke="black" stroke-width="30" stroke-linejoin="round"/>
<path d="M156.683 83.3594L83.3594 156.683" stroke="black" stroke-width="20" stroke-linecap="round" stroke-linejoin="round"/>
</g>
<defs>
<clipPath id="clip0_5237_83213">
<rect width="240" height="240" fill="white"/>
</clipPath>
</defs>
</svg>
