<svg width="1441" height="474" viewBox="0 0 1441 474" fill="none" xmlns="http://www.w3.org/2000/svg">
<path d="M149.035 74.8237V111.141H91.8435C78.753 111.141 36.0804 116.382 36.0804 183.757V345.137H0V183.757C0 103.347 49.483 74.8216 91.8435 74.8216L149.035 74.8237ZM245.164 106.088C178.071 106.088 127.474 158.437 127.474 227.85C127.474 276.947 166.117 349.602 249.019 349.602C314.586 349.602 348.279 319.128 357.044 309.787L330.826 284.839C326.364 289.589 301.495 313.285 249.019 313.285C197.268 313.285 173.297 274.857 166.039 246.009H306.505C344.724 246.009 351.277 210.267 351.154 199.109C351.154 165.727 315.74 106.088 245.164 106.088ZM245.164 142.406C293.591 142.406 315.074 183.493 315.074 199.177C314.956 209.691 309.028 209.691 306.503 209.691H165.079C172.905 165.433 209.24 142.406 245.164 142.406ZM341.411 74.8237V111.141H361.702C387.921 111.141 406.607 133.36 428.227 190.063L470.471 307.363C475.559 327.246 492.561 360.884 524.024 360.884C555.507 360.884 572.508 327.246 577.38 308.082L617.906 172.533H579.759L542.648 298.317C540.691 306.043 532.513 324.566 524.022 324.566C515.863 324.566 507.722 307.137 504.905 296.663L462.016 177.373C441.707 124.108 415.509 74.8237 361.7 74.8237H341.411ZM965.183 170.732H929.103V345.187H965.183V170.732ZM527.487 74.8237V111.141H597.125C642.088 111.141 659.756 126.137 675.86 177.776L714.679 307.363C719.767 327.236 736.749 360.884 768.232 360.884C799.714 360.884 816.698 327.236 821.57 308.082L860.547 177.974C876.709 126.137 894.377 111.141 939.34 111.141H1039.4V236.736C1039.4 312.694 1077.73 349.612 1156.58 349.612H1180.9V313.295H1156.58C1089.04 313.295 1075.48 284.003 1075.48 236.738V111.143H1168.03C1213.01 111.143 1230.68 126.129 1247.02 178.606L1296.87 320.123L1277.66 365.686C1257.02 414.625 1240.7 437.682 1180.42 437.682H1140.25V474H1180.42C1264.34 474 1289.15 431.375 1310.85 379.875L1440.5 72.3332H1401.33L1317.72 270.664L1281.22 167.111C1260.56 100.702 1228.82 74.8277 1168.03 74.8277H1075.48V0L1039.4 15.4225V74.8257H939.342C878.589 74.8257 846.852 100.7 826.093 167.296L786.862 298.261C784.535 307.147 776.414 324.568 768.236 324.568C760.057 324.568 751.938 307.147 749.413 297.6L710.32 167.099C689.619 100.7 657.882 74.8257 597.129 74.8257L527.487 74.8237Z" fill="black"/>
</svg>
