<svg width="135" height="45" viewBox="0 0 135 45" fill="none" xmlns="http://www.w3.org/2000/svg">
<path d="M13.9672 7.10351V10.5514H8.60734C7.38053 10.5514 3.38136 11.049 3.38136 17.4452V32.7662H0V17.4452C0 9.81147 4.63742 7.10332 8.60734 7.10332L13.9672 7.10351ZM22.9762 10.0716C16.6884 10.0716 11.9465 15.0414 11.9465 21.6313C11.9465 26.2924 15.5681 33.1901 23.3375 33.1901C29.4822 33.1901 32.6399 30.297 33.4613 29.4101L31.0041 27.0417C30.586 27.4926 28.2554 29.7422 23.3375 29.7422C18.4874 29.7422 16.241 26.094 15.5608 23.3553H28.7249C32.3067 23.3553 32.9207 19.9621 32.9093 18.9027C32.9093 15.7335 29.5904 10.0716 22.9762 10.0716ZM22.9762 13.5195C27.5146 13.5195 29.5279 17.4202 29.5279 18.9092C29.5169 19.9074 28.9613 19.9074 28.7247 19.9074H15.4707C16.2042 15.7056 19.6094 13.5195 22.9762 13.5195ZM31.9962 7.10351V10.5514H33.8978C36.355 10.5514 38.1062 12.6608 40.1323 18.044L44.0914 29.18C44.5682 31.0677 46.1616 34.2611 49.1102 34.2611C52.0607 34.2611 53.654 31.0677 54.1106 29.2483L57.9086 16.3797H54.3335L50.8556 28.3213C50.6722 29.0547 49.9057 30.8133 49.11 30.8133C48.3454 30.8133 47.5824 29.1586 47.3184 28.1642L43.299 16.8392C41.3957 11.7824 38.9404 7.10351 33.8976 7.10351H31.9962ZM90.4545 16.2087H87.0731V32.771H90.4545V16.2087ZM49.4347 7.10351V10.5514H55.961C60.1749 10.5514 61.8307 11.975 63.3399 16.8775L66.9779 29.18C67.4547 31.0667 69.0462 34.2611 71.9967 34.2611C74.9472 34.2611 76.5389 31.0667 76.9954 29.2483L80.6483 16.8962C82.1629 11.975 83.8187 10.5514 88.0326 10.5514H97.41V22.4749C97.41 29.6862 101.002 33.191 108.392 33.191H110.671V29.7432H108.392C102.062 29.7432 100.791 26.9623 100.791 22.4751V10.5516H109.465C113.681 10.5516 115.336 11.9742 116.868 16.9563L121.539 30.3915L119.739 34.717C117.805 39.3631 116.275 41.5521 110.626 41.5521H106.861V45H110.626C118.49 45 120.815 40.9534 122.849 36.0641L135 6.86707H131.329L123.493 25.696L120.073 15.865C118.137 9.5603 115.162 7.10389 109.465 7.10389H100.792V0L97.4102 1.46416V7.1037H88.0328C82.3392 7.1037 79.3649 9.56011 77.4194 15.8826L73.7427 28.3159C73.5246 29.1595 72.7636 30.8134 71.9971 30.8134C71.2306 30.8134 70.4697 29.1595 70.2331 28.2532L66.5694 15.8638C64.6293 9.56011 61.655 7.1037 55.9614 7.1037L49.4347 7.10351Z" fill="black"/>
</svg>
