<svg width="24" height="24" viewBox="0 0 24 24" fill="none" xmlns="http://www.w3.org/2000/svg">
<g id="Frame">
<path id="Vector" d="M7.00391 7.99951V5.99951C7.00391 3.23809 9.24249 0.999512 12.0039 0.999512C14.7653 0.999512 17.0039 3.23809 17.0039 5.99951V7.99951H20.0039C20.5562 7.99951 21.0039 8.44723 21.0039 8.99951V20.9995C21.0039 21.5518 20.5562 21.9995 20.0039 21.9995H4.00391C3.45163 21.9995 3.00391 21.5518 3.00391 20.9995V8.99951C3.00391 8.44723 3.45163 7.99951 4.00391 7.99951H7.00391ZM7.00391 9.99951H5.00391V19.9995H19.0039V9.99951H17.0039V11.9995H15.0039V9.99951H9.00391V11.9995H7.00391V9.99951ZM9.00391 7.99951H15.0039V5.99951C15.0039 4.34266 13.6607 2.99951 12.0039 2.99951C10.347 2.99951 9.00391 4.34266 9.00391 5.99951V7.99951Z" fill="#7F03B0"/>
</g>
</svg>
