<svg width="25" height="24" viewBox="0 0 25 24" fill="none" xmlns="http://www.w3.org/2000/svg">
<path fill-rule="evenodd" clip-rule="evenodd" d="M2.25 1C1.69772 1 1.25 1.44772 1.25 2V12C1.25 12.2654 1.35552 12.5199 1.54331 12.7075L10.1327 21.2869C10.4113 21.5658 10.7421 21.787 11.1062 21.9379C11.4704 22.0889 11.8608 22.1666 12.255 22.1666C12.6492 22.1666 13.0396 22.0889 13.4038 21.9379C13.7678 21.787 14.099 21.5655 14.3775 21.2867L21.5471 14.1171L20.84 13.41L21.5492 14.115C22.108 13.5529 22.4216 12.7926 22.4216 12C22.4216 11.2074 22.108 10.4471 21.5492 9.885L12.9571 1.29289C12.7696 1.10536 12.5152 1 12.25 1H2.25ZM20.1317 12.7041L20.1308 12.705L12.9625 19.8733C12.8696 19.9663 12.7593 20.04 12.6379 20.0903C12.5165 20.1407 12.3864 20.1666 12.255 20.1666C12.1236 20.1666 11.9935 20.1407 11.8721 20.0903C11.7507 20.04 11.6404 19.9663 11.5475 19.8733L11.5467 19.8725L3.25 11.5854V3H11.8358L20.1308 11.295L20.1317 11.2959C20.3174 11.4832 20.4216 11.7362 20.4216 12C20.4216 12.2638 20.3174 12.5168 20.1317 12.7041ZM7.25 6C6.69772 6 6.25 6.44772 6.25 7C6.25 7.55228 6.69772 8 7.25 8H7.26C7.81228 8 8.26 7.55228 8.26 7C8.26 6.44772 7.81228 6 7.26 6H7.25Z" fill="black"/>
</svg>
