<svg width="20" height="20" viewBox="0 0 20 20" fill="none" xmlns="http://www.w3.org/2000/svg">
<g clip-path="url(#clip0_485_1630)" filter="url(#filter0_i_485_1630)">
<path d="M9.75 18.5C14.5825 18.5 18.5 14.5825 18.5 9.75C18.5 4.91751 14.5825 1 9.75 1C4.91751 1 1 4.91751 1 9.75C1 14.5825 4.91751 18.5 9.75 18.5Z" stroke="#7F03B0" stroke-width="1.5"/>
<path d="M9.01774 11.77V11.263C9.01774 10.8903 9.06974 10.5783 9.17374 10.327C9.27774 10.067 9.40774 9.84596 9.56374 9.66396C9.7284 9.48196 9.90174 9.32163 10.0838 9.18296C10.2745 9.04429 10.4478 8.90996 10.6038 8.77996C10.7685 8.64129 10.9028 8.48963 11.0068 8.32496C11.1108 8.16029 11.1628 7.96096 11.1628 7.72696C11.1628 7.37163 11.0371 7.10729 10.7858 6.93396C10.5431 6.75196 10.205 6.66096 9.77174 6.66096C9.27774 6.66096 8.90074 6.79096 8.64074 7.05096C8.38074 7.30229 8.25507 7.67496 8.26374 8.16896H6.83374C6.83374 7.55363 6.9594 7.03363 7.21074 6.60896C7.46207 6.18429 7.81307 5.86363 8.26374 5.64696C8.7144 5.42163 9.23007 5.30896 9.81074 5.30896C10.3048 5.30896 10.7598 5.39563 11.1758 5.56896C11.6005 5.73363 11.9385 5.99796 12.1898 6.36196C12.4411 6.71729 12.5668 7.18096 12.5668 7.75296C12.5668 8.13429 12.5148 8.45496 12.4108 8.71496C12.3068 8.96629 12.1681 9.18296 11.9948 9.36496C11.8301 9.53829 11.6568 9.69429 11.4748 9.83296C11.2928 9.97163 11.1195 10.1103 10.9548 10.249C10.7901 10.379 10.6558 10.535 10.5518 10.717C10.4478 10.899 10.3958 11.12 10.3958 11.38V11.77H9.01774ZM8.86174 14.5V12.784H10.5908V14.5H8.86174Z" fill="#7F03B0"/>
</g>
<defs>
<filter id="filter0_i_485_1630" x="0" y="0" width="20" height="24" filterUnits="userSpaceOnUse" color-interpolation-filters="sRGB">
<feFlood flood-opacity="0" result="BackgroundImageFix"/>
<feBlend mode="normal" in="SourceGraphic" in2="BackgroundImageFix" result="shape"/>
<feColorMatrix in="SourceAlpha" type="matrix" values="0 0 0 0 0 0 0 0 0 0 0 0 0 0 0 0 0 0 127 0" result="hardAlpha"/>
<feOffset dy="4"/>
<feGaussianBlur stdDeviation="2"/>
<feComposite in2="hardAlpha" operator="arithmetic" k2="-1" k3="1"/>
<feColorMatrix type="matrix" values="0 0 0 0 0 0 0 0 0 0 0 0 0 0 0 0 0 0 0.25 0"/>
<feBlend mode="normal" in2="shape" result="effect1_innerShadow_485_1630"/>
</filter>
<clipPath id="clip0_485_1630">
<rect width="20" height="20" fill="white"/>
</clipPath>
</defs>
</svg>
