<?xml version="1.0" encoding="UTF-8" standalone="no" ?>
<!DOCTYPE svg PUBLIC "-//W3C//DTD SVG 1.1//EN" "http://www.w3.org/Graphics/SVG/1.1/DTD/svg11.dtd">
<svg xmlns="http://www.w3.org/2000/svg" xmlns:xlink="http://www.w3.org/1999/xlink" version="1.1" width="1080" height="1080" viewBox="0 0 1080 1080" xml:space="preserve">
<desc>Created with Fabric.js 5.2.4</desc>
<defs>
</defs>
<g transform="matrix(1 0 0 1 540 540)" id="badd00a9-ac81-41c1-817e-ebccc85f0f91"  >
<rect style="stroke: none; stroke-width: 1; stroke-dasharray: none; stroke-linecap: butt; stroke-dashoffset: 0; stroke-linejoin: miter; stroke-miterlimit: 4; fill: rgb(255,255,255); fill-rule: nonzero; opacity: 1; visibility: hidden;" vector-effect="non-scaling-stroke"  x="-540" y="-540" rx="0" ry="0" width="1080" height="1080" />
</g>
<g transform="matrix(1 0 0 1 540 540)" id="d695a5e9-b612-4ddb-b5b5-b6da63bef131"  >
</g>
<g transform="matrix(27.69 0 0 27.69 540 540)"  >
<path style="stroke: rgb(118,117,117); stroke-width: 1; stroke-dasharray: none; stroke-linecap: round; stroke-dashoffset: 0; stroke-linejoin: round; stroke-miterlimit: 4; fill: rgb(255,255,255); fill-rule: nonzero; opacity: 1;"  transform=" translate(-19.11, -15.49)" d="M 0 1 C 2.312 1 4.418 2.3281 5.415 4.4140999999999995 L 16.753 28.154200000000003 C 17.937 30.632200000000005 21.487000000000002 30.5664 22.576999999999998 28.046200000000002 L 32.718999999999994 4.616700000000002 C 33.669 2.4212000000000016 35.83299999999999 1.0000000000000018 38.224999999999994 1.0000000000000018" stroke-linecap="round" />
</g>
<g transform="matrix(14.12 0 0 1 542.19 106.13)" id="f5e642b3-4db8-4c17-b5dd-5a9b62857961"  >
<rect style="stroke: rgb(0,0,0); stroke-width: 0; stroke-dasharray: none; stroke-linecap: butt; stroke-dashoffset: 0; stroke-linejoin: miter; stroke-miterlimit: 4; fill: rgb(255,255,255); fill-rule: nonzero; opacity: 1;" vector-effect="non-scaling-stroke"  x="-37.46" y="-19.415" rx="0" ry="0" width="74.92" height="38.83" />
</g>
<g transform="matrix(0.09 -0.41 3.91 0.82 108.53 126.34)" id="f5e642b3-4db8-4c17-b5dd-5a9b62857961"  >
<rect style="stroke: rgb(0,0,0); stroke-width: 0; stroke-dasharray: none; stroke-linecap: butt; stroke-dashoffset: 0; stroke-linejoin: miter; stroke-miterlimit: 4; fill: rgb(255,255,255); fill-rule: nonzero; opacity: 1;" vector-effect="non-scaling-stroke"  x="-37.46" y="-19.415" rx="0" ry="0" width="74.92" height="38.83" />
</g>
<g transform="matrix(11.04 0 0 1 543.98 143.82)" id="f5e642b3-4db8-4c17-b5dd-5a9b62857961"  >
<rect style="stroke: rgb(0,0,0); stroke-width: 0; stroke-dasharray: none; stroke-linecap: butt; stroke-dashoffset: 0; stroke-linejoin: miter; stroke-miterlimit: 4; fill: rgb(255,255,255); fill-rule: nonzero; opacity: 1;" vector-effect="non-scaling-stroke"  x="-37.46" y="-19.415" rx="0" ry="0" width="74.92" height="38.83" />
</g>
<g transform="matrix(0.15 -0.39 3.73 1.41 132.29 143.26)" id="f5e642b3-4db8-4c17-b5dd-5a9b62857961"  >
<rect style="stroke: rgb(0,0,0); stroke-width: 0; stroke-dasharray: none; stroke-linecap: butt; stroke-dashoffset: 0; stroke-linejoin: miter; stroke-miterlimit: 4; fill: rgb(255,255,255); fill-rule: nonzero; opacity: 1;" vector-effect="non-scaling-stroke"  x="-37.46" y="-19.415" rx="0" ry="0" width="74.92" height="38.83" />
</g>
<g transform="matrix(0.22 -0.36 3.4 2.09 163.05 170.57)" id="f5e642b3-4db8-4c17-b5dd-5a9b62857961"  >
<rect style="stroke: rgb(0,0,0); stroke-width: 0; stroke-dasharray: none; stroke-linecap: butt; stroke-dashoffset: 0; stroke-linejoin: miter; stroke-miterlimit: 4; fill: rgb(255,255,255); fill-rule: nonzero; opacity: 1;" vector-effect="non-scaling-stroke"  x="-37.46" y="-19.415" rx="0" ry="0" width="74.92" height="38.83" />
</g>
<g transform="matrix(-0.09 -0.41 3.9 -0.84 979.57 125.18)" id="f5e642b3-4db8-4c17-b5dd-5a9b62857961"  >
<rect style="stroke: rgb(0,0,0); stroke-width: 0; stroke-dasharray: none; stroke-linecap: butt; stroke-dashoffset: 0; stroke-linejoin: miter; stroke-miterlimit: 4; fill: rgb(255,255,255); fill-rule: nonzero; opacity: 1;" vector-effect="non-scaling-stroke"  x="-37.46" y="-19.415" rx="0" ry="0" width="74.92" height="38.83" />
</g>
<g transform="matrix(-0.17 -0.38 3.63 -1.65 937.65 150.49)" id="f5e642b3-4db8-4c17-b5dd-5a9b62857961"  >
<rect style="stroke: rgb(0,0,0); stroke-width: 0; stroke-dasharray: none; stroke-linecap: butt; stroke-dashoffset: 0; stroke-linejoin: miter; stroke-miterlimit: 4; fill: rgb(255,255,255); fill-rule: nonzero; opacity: 1;" vector-effect="non-scaling-stroke"  x="-37.46" y="-19.415" rx="0" ry="0" width="74.92" height="38.83" />
</g>
</svg>