<svg width="23" height="16" viewBox="0 0 23 16" fill="none" xmlns="http://www.w3.org/2000/svg">
<path d="M8.215 13C8.09612 13.8343 7.68021 14.5977 7.04368 15.1499C6.40714 15.7022 5.59272 16.0063 4.75 16.0063C3.90728 16.0063 3.09286 15.7022 2.45632 15.1499C1.81979 14.5977 1.40388 13.8343 1.285 13H0.25V1C0.25 0.734784 0.355357 0.48043 0.542893 0.292893C0.73043 0.105357 0.984784 0 1.25 0H15.25C15.5152 0 15.7696 0.105357 15.9571 0.292893C16.1446 0.48043 16.25 0.734784 16.25 1V3H19.25L22.25 7.056V13H20.215C20.0961 13.8343 19.6802 14.5977 19.0437 15.1499C18.4071 15.7022 17.5927 16.0063 16.75 16.0063C15.9073 16.0063 15.0929 15.7022 14.4563 15.1499C13.8198 14.5977 13.4039 13.8343 13.285 13H8.215ZM14.25 2H2.25V10.05C2.64456 9.6472 3.1306 9.34568 3.66675 9.17112C4.2029 8.99655 4.77329 8.95411 5.32938 9.04739C5.88546 9.14068 6.41077 9.36693 6.86061 9.7069C7.31044 10.0469 7.67148 10.4905 7.913 11H13.587C13.755 10.647 13.98 10.326 14.25 10.05V2ZM16.25 8H20.25V7.715L18.242 5H16.25V8ZM16.75 14C17.148 14 17.5296 13.8419 17.811 13.5605C18.0924 13.2791 18.2505 12.8975 18.2505 12.4995C18.2505 12.1015 18.0924 11.7199 17.811 11.4385C17.5296 11.1571 17.148 10.999 16.75 10.999C16.352 10.999 15.9704 11.1571 15.689 11.4385C15.4076 11.7199 15.2495 12.1015 15.2495 12.4995C15.2495 12.8975 15.4076 13.2791 15.689 13.5605C15.9704 13.8419 16.352 14 16.75 14ZM6.25 12.5C6.25 12.303 6.2112 12.108 6.13582 11.926C6.06044 11.744 5.94995 11.5786 5.81066 11.4393C5.67137 11.3001 5.50601 11.1896 5.32403 11.1142C5.14204 11.0388 4.94698 11 4.75 11C4.55302 11 4.35796 11.0388 4.17597 11.1142C3.99399 11.1896 3.82863 11.3001 3.68934 11.4393C3.55005 11.5786 3.43956 11.744 3.36418 11.926C3.2888 12.108 3.25 12.303 3.25 12.5C3.25 12.8978 3.40804 13.2794 3.68934 13.5607C3.97064 13.842 4.35218 14 4.75 14C5.14782 14 5.52936 13.842 5.81066 13.5607C6.09196 13.2794 6.25 12.8978 6.25 12.5Z" fill="#03053D"/>
</svg>
