<svg width="63" height="63" viewBox="0 0 63 63" fill="none" xmlns="http://www.w3.org/2000/svg">
<circle cx="31.5" cy="31.5" r="31.5" fill="#33AD5D"/>
<circle cx="31.5" cy="31.5" r="31.5" fill="#D17F03"/>
<path fill-rule="evenodd" clip-rule="evenodd" d="M31.5003 11.0254C32.3701 11.0254 33.0753 11.7305 33.0753 12.6004V39.3754C33.0753 40.2452 32.3701 40.9504 31.5003 40.9504V40.9504C30.6304 40.9504 29.9253 40.2452 29.9253 39.3754V12.6004C29.9253 11.7305 30.6304 11.0254 31.5003 11.0254V11.0254Z" fill="white"/>
<path d="M31.5001 51.9758C33.2398 51.9758 34.6501 50.5655 34.6501 48.8258C34.6501 47.0861 33.2398 45.6758 31.5001 45.6758C29.7604 45.6758 28.3501 47.0861 28.3501 48.8258C28.3501 50.5655 29.7604 51.9758 31.5001 51.9758Z" fill="white"/>
</svg>
