<svg width="444" height="268" viewBox="0 0 444 268" fill="none" xmlns="http://www.w3.org/2000/svg">
<g clip-path="url(#clip0_788_3310)">
<g clip-path="url(#clip1_788_3310)">
<path d="M126.719 126.208C151.155 63.2478 185.231 67.3399 205.967 71.2122C222.381 74.278 241.841 83.514 249.781 87.8863C267.465 97.6236 271.436 103.128 311.324 84.3242C351.212 65.52 376.365 76.7736 389.234 84.2346C432.138 109.109 429.623 162.583 423.003 186.211C405.62 238.498 368.151 237.685 348.711 238.346C329.271 239.006 303.215 236.518 286.062 241.14C272.34 244.837 256.546 251.947 242.989 258.086C211.177 272.492 184.146 252.376 173.181 243.302C149.549 225.258 107.171 176.577 126.719 126.208Z" fill="url(#paint0_linear_788_3310)"/>
</g>
</g>
<defs>
<linearGradient id="paint0_linear_788_3310" x1="253.523" y1="144.065" x2="221.747" y2="533.603" gradientUnits="userSpaceOnUse">
<stop offset="0.135954" stop-color="#FFEB0F"/>
<stop offset="0.904262" stop-color="#73D733"/>
</linearGradient>
<clipPath id="clip0_788_3310">
<path d="M0 12C0 5.37259 5.37258 0 12 0H432C438.627 0 444 5.37258 444 12V256C444 262.627 438.627 268 432 268H12C5.37258 268 0 262.627 0 256V12Z" fill="white"/>
</clipPath>
<clipPath id="clip1_788_3310">
<rect width="287.21" height="246.78" fill="white" transform="translate(460.831 189.09) rotate(150)"/>
</clipPath>
</defs>
</svg>
