<svg width="24" height="24" viewBox="0 0 24 24" fill="none" xmlns="http://www.w3.org/2000/svg">
<path d="M13.7119 6.52043C13.7119 4.90282 14.5691 4.90282 15.4262 4.90282H16.4548C16.6265 4.90499 16.797 4.87468 16.9561 4.81367C17.1152 4.75266 17.2597 4.66218 17.3812 4.54759C17.5026 4.43299 17.5985 4.2966 17.6632 4.14646C17.7278 3.99632 17.7599 3.83548 17.7576 3.67344V2.15289C17.7576 1.99007 17.7234 1.82888 17.6568 1.67866C17.5903 1.52844 17.4928 1.39219 17.37 1.27781C17.2472 1.16344 17.1015 1.07322 16.9415 1.0124C16.7814 0.951579 16.6102 0.921362 16.4376 0.923505L14.0033 0.891152C13.2945 0.865283 12.5882 0.98485 11.9332 1.2416C11.2781 1.49835 10.6898 1.88617 10.2091 2.37829C9.72827 2.87042 9.36637 3.45512 9.14834 4.09205C8.93031 4.72898 8.86135 5.40297 8.9462 6.0675V8.41303H7.59192C7.24638 8.41303 6.91499 8.54255 6.67066 8.7731C6.42633 9.00366 6.28906 9.31636 6.28906 9.64241V11.163C6.28906 11.489 6.42633 11.8017 6.67066 12.0323C6.91499 12.2628 7.24638 12.3923 7.59192 12.3923H8.9462V21.0789C8.9462 21.2934 9.03651 21.4991 9.19726 21.6508C9.358 21.8025 9.57602 21.8877 9.80335 21.8877H12.9062C13.1245 21.8753 13.3295 21.7847 13.4793 21.6343C13.6291 21.4839 13.7123 21.2852 13.7119 21.0789V12.3923H15.2205C15.566 12.3923 15.8974 12.2628 16.1418 12.0323C16.3861 11.8017 16.5233 11.489 16.5233 11.163V9.64241C16.5233 9.31636 16.3861 9.00366 16.1418 8.7731C15.8974 8.54255 15.566 8.41303 15.2205 8.41303H13.7119V6.52043Z" fill="white"/>
</svg>
