<svg width="1442" height="32" viewBox="0 0 1442 32" fill="none" xmlns="http://www.w3.org/2000/svg">
<path d="M1 1.5C476.503 1.5 1208.3 1.5 1264.16 1.5C1266.47 1.5 1268.19 2.82844 1269.19 4.91487L1280.52 28.6516C1281.71 31.1301 1285.26 31.0643 1286.35 28.5436L1296.48 5.11735C1297.43 2.92149 1299.6 1.5 1301.99 1.5H1441" fill="white"/>
<path d="M1 1.5C476.503 1.5 1208.3 1.5 1264.16 1.5C1266.47 1.5 1268.19 2.82844 1269.19 4.91487L1280.52 28.6516C1281.71 31.1301 1285.26 31.0643 1286.35 28.5436L1296.48 5.11735C1297.43 2.92149 1299.6 1.5 1301.99 1.5H1441" stroke="black" stroke-width="2" stroke-linecap="square"/>
</svg>
