<svg width="24" height="24" viewBox="0 0 24 24" fill="none" xmlns="http://www.w3.org/2000/svg">
<path d="M6.40304 3.07122C6.40743 3.63649 6.18925 4.18078 5.79564 4.58651C5.40203 4.99223 4.86459 5.2268 4.29945 5.23953C3.73549 5.21884 3.20103 4.98228 2.80652 4.57874C2.41201 4.17519 2.18761 3.63551 2.17969 3.07122C2.2042 2.52144 2.43686 2.00154 2.83048 1.61693C3.2241 1.23232 3.74925 1.01177 4.29945 1C4.84805 1.01199 5.37135 1.23309 5.76236 1.61808C6.15336 2.00307 6.38254 2.52288 6.40304 3.07122ZM2.40623 9.09071C2.40623 7.84474 3.19912 8.03892 4.29945 8.03892C5.39979 8.03892 6.1765 7.84474 6.1765 9.09071V21.2268C6.1765 22.4889 5.38361 22.23 4.29945 22.23C3.2153 22.23 2.40623 22.4889 2.40623 21.2268V9.09071Z" fill="white"/>
<path d="M9.44531 9.09134C9.44531 8.39554 9.70422 8.13663 10.1088 8.05573C10.5133 7.97482 11.9049 8.05573 12.3903 8.05573C12.8758 8.05573 13.07 8.84862 13.0538 9.44733C13.469 8.89003 14.0203 8.44861 14.6549 8.16529C15.2896 7.88198 15.9863 7.76625 16.6784 7.82919C17.3581 7.78764 18.0389 7.88953 18.6766 8.12827C19.3143 8.367 19.8946 8.73722 20.3799 9.21488C20.8652 9.69254 21.2446 10.2669 21.4934 10.9008C21.7422 11.5346 21.8549 12.2137 21.8241 12.894V21.1789C21.8241 22.441 21.0474 22.1821 19.9471 22.1821C18.8467 22.1821 18.07 22.441 18.07 21.1789V14.7063C18.0985 14.3732 18.0549 14.0378 17.9423 13.723C17.8296 13.4082 17.6506 13.1214 17.4172 12.8819C17.1839 12.6425 16.9018 12.456 16.59 12.3352C16.2783 12.2145 15.9442 12.1622 15.6104 12.182C15.2782 12.1736 14.948 12.2358 14.6417 12.3645C14.3353 12.4933 14.0598 12.6857 13.8334 12.9289C13.607 13.1722 13.4348 13.4607 13.3283 13.7755C13.2218 14.0903 13.1834 14.4241 13.2156 14.7548V21.2274C13.2156 22.4896 12.4227 22.2307 11.3224 22.2307C10.222 22.2307 9.44531 22.4896 9.44531 21.2274V9.09134Z" fill="white"/>
</svg>
