<svg width="280" height="199" viewBox="0 0 280 199" fill="none" xmlns="http://www.w3.org/2000/svg">
<g clip-path="url(#clip0_786_3342)">
<path d="M14.8471 118.833C22.7836 77.7096 44.0297 76.4323 57.1107 76.4986C67.4658 76.5512 80.3625 80.0316 85.6917 81.82C97.5606 85.8029 100.593 88.7218 122.849 72.8304C145.105 56.9388 161.699 61.0196 170.378 64.1468C199.312 74.5729 203.7 107.48 202.277 122.63C197.462 156.46 174.509 160.113 162.72 162.669C150.932 165.226 134.757 166.593 124.803 171.313C116.839 175.089 107.99 181.176 100.398 186.424C82.5822 198.737 63.8608 189.457 56.1654 185.134C39.7472 176.742 8.49793 151.731 14.8471 118.833Z" fill="url(#paint0_linear_786_3342)"/>
</g>
<defs>
<linearGradient id="paint0_linear_786_3342" x1="94.1969" y1="115.684" x2="117.951" y2="356.89" gradientUnits="userSpaceOnUse">
<stop offset="0.135954" stop-color="#FFEB0F"/>
<stop offset="0.904262" stop-color="#73D733"/>
</linearGradient>
<clipPath id="clip0_786_3342">
<rect width="280" height="199" fill="white"/>
</clipPath>
</defs>
</svg>
