<svg width="280" height="199" viewBox="0 0 280 199" fill="none" xmlns="http://www.w3.org/2000/svg">
<g clip-path="url(#clip0_786_3346)">
<path d="M176.215 79.0639C151.05 78.1179 144.364 97.1101 140.555 106.491C137.223 114.697 136.558 119.597 132.409 121.434C127.43 123.639 114.73 124.418 102.758 113.178C90.7851 101.938 74.8133 97.8679 68.3239 97.2379C56.8536 96.8447 32.2909 103.77 25.8013 134.618C19.3118 165.466 51.635 173.258 68.6077 173.298C78.8949 173.322 85.2891 172.134 98.509 180.733C115.034 191.482 126.514 198.764 137.981 197.189C149.449 195.614 150.817 181.199 152.544 174.251C154.272 167.303 156.345 158.965 172.332 157.039C185.122 155.497 191.192 152.283 193.872 150.591C199.779 146.862 208.626 138.767 211.888 110.805C214.497 88.4361 189.193 80.3239 176.215 79.0639Z" fill="url(#paint0_linear_786_3346)"/>
</g>
<defs>
<linearGradient id="paint0_linear_786_3346" x1="123.395" y1="140.485" x2="269.439" y2="-10.9645" gradientUnits="userSpaceOnUse">
<stop offset="0.135954" stop-color="#FFEB0F"/>
<stop offset="0.904262" stop-color="#73D733"/>
</linearGradient>
<clipPath id="clip0_786_3346">
<rect width="280" height="199" fill="white"/>
</clipPath>
</defs>
</svg>
