<svg width="280" height="199" viewBox="0 0 280 199" fill="none" xmlns="http://www.w3.org/2000/svg">
<g clip-path="url(#clip0_786_3384)">
<path d="M262.582 110.563C249.724 161.86 222.848 161.997 206.36 161.006C193.309 160.221 177.29 154.939 170.695 152.314C156.007 146.469 152.386 142.579 123.224 161.071C94.0622 179.563 73.4233 173.267 62.6984 168.722C26.9421 153.57 23.6923 111.777 26.537 92.7749C34.955 50.4571 64.147 47.4426 79.1869 45.0375C94.227 42.6324 114.714 42.03 127.592 36.7699C137.894 32.5616 149.474 25.501 159.41 19.4114C182.726 5.12271 205.685 18.122 215.088 24.1052C235.205 35.8256 272.869 69.5257 262.582 110.563Z" fill="url(#paint0_linear_786_3384)"/>
</g>
<defs>
<linearGradient id="paint0_linear_786_3384" x1="162.321" y1="109.029" x2="149.103" y2="-196.726" gradientUnits="userSpaceOnUse">
<stop offset="0.135954" stop-color="#FFEB0F"/>
<stop offset="0.904262" stop-color="#73D733"/>
</linearGradient>
<clipPath id="clip0_786_3384">
<rect width="280" height="199" fill="white"/>
</clipPath>
</defs>
</svg>
