<svg width="174" height="58" viewBox="0 0 174 58" fill="none" xmlns="http://www.w3.org/2000/svg">
<path d="M18.6487 9.15564V13.5996H11.7801C10.208 13.5996 5.08315 14.2409 5.08315 22.485V42.232H0.75V22.485C0.75 12.6459 6.69276 9.15539 11.7801 9.15539L18.6487 9.15564ZM30.1935 12.9812C22.1358 12.9812 16.0592 19.3868 16.0592 27.8804C16.0592 33.888 20.7002 42.7783 30.6565 42.7783C38.5309 42.7783 42.5774 39.0494 43.63 37.9064L40.4812 34.8538C39.9454 35.4349 36.9587 38.3344 30.6565 38.3344C24.4413 38.3344 21.5625 33.6323 20.6908 30.1024H37.5604C42.1504 30.1024 42.9373 25.7289 42.9227 24.3635C42.9227 20.2788 38.6695 12.9812 30.1935 12.9812ZM30.1935 17.4251C36.0094 17.4251 38.5895 22.4527 38.5895 24.3719C38.5753 25.6584 37.8634 25.6584 37.5602 25.6584H20.5755C21.5154 20.2428 25.8791 17.4251 30.1935 17.4251ZM41.7525 9.15564V13.5996H44.1894C47.3382 13.5996 49.5824 16.3184 52.1788 23.2567L57.2523 37.6098C57.8633 40.0428 59.9052 44.1588 63.6838 44.1588C67.4648 44.1588 69.5066 40.0428 70.0917 37.6978L74.9588 21.1117H70.3774L65.9205 36.503C65.6855 37.4483 64.7033 39.7149 63.6835 39.7149C62.7037 39.7149 61.726 37.5821 61.3877 36.3005L56.2369 21.7039C53.7978 15.1862 50.6514 9.15564 44.1892 9.15564H41.7525ZM116.666 20.8912H112.333V42.2381H116.666V20.8912ZM64.0997 9.15564V13.5996H72.463C77.863 13.5996 79.9849 15.4345 81.9189 21.7532L86.5809 37.6098C87.192 40.0416 89.2314 44.1588 93.0124 44.1588C96.7934 44.1588 98.8331 40.0416 99.4182 37.6978L104.099 21.7774C106.04 15.4345 108.162 13.5996 113.562 13.5996H125.579V28.9677C125.579 38.2622 130.183 42.7796 139.652 42.7796H142.573V38.3356H139.652C131.541 38.3356 129.912 34.7514 129.912 28.9679V13.5998H141.027C146.43 13.5998 148.551 15.4335 150.514 21.8548L156.5 39.1712L154.193 44.7463C151.714 50.7347 149.755 53.5561 142.515 53.5561H137.69V58H142.515C152.593 58 155.573 52.7843 158.179 46.4826L173.75 8.85089H169.045L159.004 33.1192L154.621 20.4482C152.14 12.3222 148.328 9.15613 141.027 9.15613H129.912V0L125.579 1.88715V9.15588H113.562C106.266 9.15588 102.455 12.3219 99.9615 20.4709L95.2499 36.4961C94.9705 37.5834 93.9952 39.7151 93.0129 39.7151C92.0307 39.7151 91.0556 37.5834 90.7524 36.4152L86.0574 20.4467C83.5712 12.3219 79.7597 9.15588 72.4635 9.15588L64.0997 9.15564Z" fill="black"/>
</svg>
