<svg width="24" height="24" viewBox="0 0 24 24" fill="none" xmlns="http://www.w3.org/2000/svg">
<path d="M19.7126 3.42847H4.28404C2.39049 3.42847 0.855469 4.96349 0.855469 6.85704V17.1428C0.855469 19.0363 2.39049 20.5713 4.28404 20.5713H19.7126C21.6062 20.5713 23.1412 19.0363 23.1412 17.1428V6.85704C23.1412 4.96349 21.6062 3.42847 19.7126 3.42847Z" fill="white"/>
<path d="M9.75026 15.1452V8.8516C9.74706 8.74535 9.7736 8.64025 9.82703 8.54763C9.88046 8.45501 9.95875 8.37837 10.0535 8.32596C10.1482 8.27355 10.2558 8.24736 10.3646 8.25021C10.4735 8.25306 10.5795 8.28483 10.6712 8.34212L16.1967 11.4889C16.2891 11.5418 16.3656 11.6173 16.4188 11.708C16.472 11.7987 16.5 11.9014 16.5 12.0059C16.5 12.1104 16.472 12.2131 16.4188 12.3038C16.3656 12.3945 16.2891 12.47 16.1967 12.5229L10.6712 15.6697C10.5774 15.7225 10.4711 15.7502 10.3628 15.75C10.2546 15.7498 10.1483 15.7216 10.0548 15.6683C9.96134 15.6151 9.88392 15.5387 9.83043 15.4468C9.77694 15.3549 9.74929 15.2509 9.75026 15.1452Z" fill="black"/>
</svg>
